<svg xmlns="http://www.w3.org/2000/svg" width="1em" height="1em" viewBox="0 0 32 32"><g fill="none"><path fill="url(#f292id0)" d="M27.83 7.41c.47-.54.08-1.38-.64-1.38H4.84c-.72 0-1.1.84-.64 1.38l10.81 12.62v7.32h-3.22c-.98 0-1.77.79-1.77 1.77v.91h12v-.91c0-.98-.79-1.77-1.77-1.77h-3.23v-7.32z"/><path fill="url(#f292id1)" d="M27.83 7.41c.47-.54.08-1.38-.64-1.38H4.84c-.72 0-1.1.84-.64 1.38l10.81 12.62v7.32h-3.22c-.98 0-1.77.79-1.77 1.77v.91h12v-.91c0-.98-.79-1.77-1.77-1.77h-3.23v-7.32z"/><path fill="url(#f292idi)" d="M27.83 7.41c.47-.54.08-1.38-.64-1.38H4.84c-.72 0-1.1.84-.64 1.38l10.81 12.62v7.32h-3.22c-.98 0-1.77.79-1.77 1.77v.91h12v-.91c0-.98-.79-1.77-1.77-1.77h-3.23v-7.32z"/><path fill="url(#f292idj)" d="M27.83 7.41c.47-.54.08-1.38-.64-1.38H4.84c-.72 0-1.1.84-.64 1.38l10.81 12.62v7.32h-3.22c-.98 0-1.77.79-1.77 1.77v.91h12v-.91c0-.98-.79-1.77-1.77-1.77h-3.23v-7.32z"/><path fill="url(#f292id2)" d="M27.83 7.41c.47-.54.08-1.38-.64-1.38H4.84c-.72 0-1.1.84-.64 1.38l10.81 12.62v7.32h-3.22c-.98 0-1.77.79-1.77 1.77v.91h12v-.91c0-.98-.79-1.77-1.77-1.77h-3.23v-7.32z"/><path fill="url(#f292id3)" d="M27.83 7.41c.47-.54.08-1.38-.64-1.38H4.84c-.72 0-1.1.84-.64 1.38l10.81 12.62v7.32h-3.22c-.98 0-1.77.79-1.77 1.77v.91h12v-.91c0-.98-.79-1.77-1.77-1.77h-3.23v-7.32z"/><path fill="url(#f292idk)" d="M11.79 27.35c-.98 0-1.77.79-1.77 1.77v.91h12v-.91c0-.98-.79-1.77-1.77-1.77z"/><path fill="url(#f292id4)" d="M11.79 27.35c-.98 0-1.77.79-1.77 1.77v.91h12v-.91c0-.98-.79-1.77-1.77-1.77z"/><path fill="url(#f292id5)" d="M11.79 27.35c-.98 0-1.77.79-1.77 1.77v.91h12v-.91c0-.98-.79-1.77-1.77-1.77z"/><path fill="url(#f292idl)" d="M15.01 20.03v7.32h2.01v-7.32z"/><path fill="#56def0" d="M14.44 18.1L8 10.23a.736.736 0 0 1 .57-1.2h14.89c.62 0 .96.72.57 1.2L17.6 18.1c-.82 1-2.34 1-3.16 0"/><path fill="url(#f292id6)" d="M14.44 18.1L8 10.23a.736.736 0 0 1 .57-1.2h14.89c.62 0 .96.72.57 1.2L17.6 18.1c-.82 1-2.34 1-3.16 0"/><path fill="url(#f292id7)" d="M14.44 18.1L8 10.23a.736.736 0 0 1 .57-1.2h14.89c.62 0 .96.72.57 1.2L17.6 18.1c-.82 1-2.34 1-3.16 0"/><path fill="url(#f292id8)" d="M14.44 18.1L8 10.23a.736.736 0 0 1 .57-1.2h14.89c.62 0 .96.72.57 1.2L17.6 18.1c-.82 1-2.34 1-3.16 0"/><path fill="url(#f292idm)" d="M14.44 18.1L8 10.23a.736.736 0 0 1 .57-1.2h14.89c.62 0 .96.72.57 1.2L17.6 18.1c-.82 1-2.34 1-3.16 0"/><path fill="url(#f292id9)" d="M14.44 18.1L8 10.23a.736.736 0 0 1 .57-1.2h14.89c.62 0 .96.72.57 1.2L17.6 18.1c-.82 1-2.34 1-3.16 0"/><path fill="url(#f292ida)" d="M14.44 18.1L8 10.23a.736.736 0 0 1 .57-1.2h14.89c.62 0 .96.72.57 1.2L17.6 18.1c-.82 1-2.34 1-3.16 0"/><path stroke="url(#f292idn)" stroke-linecap="round" stroke-linejoin="round" stroke-miterlimit="10" d="m16.02 15.78l2.236-6.64L20.49 2.5"/><path stroke="url(#f292ido)" stroke-linecap="round" stroke-linejoin="round" stroke-miterlimit="10" d="m16.02 15.78l2.236-6.64L20.49 2.5"/><path stroke="url(#f292idp)" stroke-linecap="round" stroke-linejoin="round" stroke-miterlimit="10" d="m16.02 15.78l2.236-6.64"/><path stroke="url(#f292idb)" stroke-linecap="round" stroke-linejoin="round" stroke-miterlimit="10" d="m16.02 15.78l2.236-6.64"/><path stroke="url(#f292idc)" stroke-linecap="round" stroke-linejoin="round" stroke-miterlimit="10" d="m16.02 15.78l2.236-6.64"/><path fill="#397f4e" d="M17.95 12.16a2.23 2.23 0 1 0 0-4.46a2.23 2.23 0 0 0 0 4.46"/><path fill="url(#f292idd)" d="M17.95 12.16a2.23 2.23 0 1 0 0-4.46a2.23 2.23 0 0 0 0 4.46"/><path fill="#398974" d="M17.95 12.16a2.23 2.23 0 0 0 2.055-3.1h-4.108a2.23 2.23 0 0 0 2.054 3.1"/><path fill="url(#f292ide)" d="M17.95 12.16a2.23 2.23 0 0 0 2.055-3.1h-4.108a2.23 2.23 0 0 0 2.054 3.1"/><path fill="url(#f292idq)" d="M17.95 12.16a2.23 2.23 0 0 0 2.055-3.1h-4.108a2.23 2.23 0 0 0 2.054 3.1"/><path fill="url(#f292idf)" d="M17.95 12.16a2.23 2.23 0 0 0 2.055-3.1h-4.108a2.23 2.23 0 0 0 2.054 3.1"/><path fill="#fa684c" d="M18.24 9.81c-.2.6-.8.93-1.34.75s-.81-.81-.61-1.41s.8-.93 1.34-.75s.81.81.61 1.41"/><path fill="url(#f292idg)" d="M18.24 9.81c-.2.6-.8.93-1.34.75s-.81-.81-.61-1.41s.8-.93 1.34-.75s.81.81.61 1.41"/><path fill="#fa684c" d="M18.24 9.81c-.2.6-.8.93-1.34.75s-.81-.81-.61-1.41q.015-.045.034-.088h1.931c.07.23.071.492-.014.748"/><path fill="url(#f292idh)" d="M18.24 9.81c-.2.6-.8.93-1.34.75s-.81-.81-.61-1.41q.015-.045.034-.088h1.931c.07.23.071.492-.014.748"/><path fill="url(#f292idr)" d="M18.24 9.81c-.2.6-.8.93-1.34.75s-.81-.81-.61-1.41q.015-.045.034-.088h1.931c.07.23.071.492-.014.748"/><path fill="url(#f292ids)" d="M18.24 9.81c-.2.6-.8.93-1.34.75s-.81-.81-.61-1.41q.015-.045.034-.088h1.931c.07.23.071.492-.014.748"/><path fill="url(#f292idt)" d="M25.019 9.021a.75.75 0 0 0-1.163-.948zM17.2 16.23a.75.75 0 1 0 1.162.948zm6.656-8.156L17.2 16.229l1.162.948l6.657-8.156z"/><defs><radialGradient id="f292id0" cx="0" cy="0" r="1" gradientTransform="matrix(0 20.845 -13.3929 0 16.018 6.03)" gradientUnits="userSpaceOnUse"><stop stop-color="#bef"/><stop offset=".52" stop-color="#bae8ff"/><stop offset=".926" stop-color="#b6d9f5"/></radialGradient><radialGradient id="f292id1" cx="0" cy="0" r="1" gradientTransform="matrix(0 10.9675 -10.9839 0 16.018 19.063)" gradientUnits="userSpaceOnUse"><stop offset=".076" stop-color="#baedff"/><stop offset="1" stop-color="#bef" stop-opacity="0"/></radialGradient><radialGradient id="f292id2" cx="0" cy="0" r="1" gradientTransform="matrix(0 .42188 -15.625 0 7.25 6.86)" gradientUnits="userSpaceOnUse"><stop stop-color="#cff0ff"/><stop offset="1" stop-color="#c6edff" stop-opacity="0"/></radialGradient><radialGradient id="f292id3" cx="0" cy="0" r="1" gradientTransform="matrix(0 .8125 -14.6246 0 23.938 6.688)" gradientUnits="userSpaceOnUse"><stop stop-color="#d2f9ff"/><stop offset="1" stop-color="#c6edff" stop-opacity="0"/></radialGradient><radialGradient id="f292id4" cx="0" cy="0" r="1" gradientTransform="matrix(0 .78125 -6.84375 0 12.281 28.125)" gradientUnits="userSpaceOnUse"><stop stop-color="#c3edff"/><stop offset="1" stop-color="#c1ebff" stop-opacity="0"/></radialGradient><radialGradient id="f292id5" cx="0" cy="0" r="1" gradientTransform="matrix(.03125 .71875 -4.21892 .18343 18.563 28.531)" gradientUnits="userSpaceOnUse"><stop offset=".188" stop-color="#d0fcff"/><stop offset=".763" stop-color="#d2fcff" stop-opacity="0"/></radialGradient><radialGradient id="f292id6" cx="0" cy="0" r="1" gradientTransform="rotate(142.326 2.836 7.997)scale(3.11906 28.5061)" gradientUnits="userSpaceOnUse"><stop stop-color="#a3ca95"/><stop offset=".111" stop-color="#88c0d7"/><stop offset=".39" stop-color="#b82eac" stop-opacity="0"/></radialGradient><radialGradient id="f292id7" cx="0" cy="0" r="1" gradientTransform="rotate(34.606 -11.444 40.101)scale(3.79671 34.6994)" gradientUnits="userSpaceOnUse"><stop stop-color="#a3ca95"/><stop offset=".111" stop-color="#88c0d7"/><stop offset=".297" stop-color="#b82eac" stop-opacity="0"/></radialGradient><radialGradient id="f292id8" cx="0" cy="0" r="1" gradientTransform="matrix(3 3.6875 -4.13433 3.36353 20.875 12.063)" gradientUnits="userSpaceOnUse"><stop stop-color="#c75dd5"/><stop offset="1" stop-color="#b82eac" stop-opacity="0"/></radialGradient><radialGradient id="f292id9" cx="0" cy="0" r="1" gradientTransform="matrix(0 .53125 -5.61133 0 10.063 9.719)" gradientUnits="userSpaceOnUse"><stop stop-color="#8db6dd"/><stop offset="1" stop-color="#9881ef" stop-opacity="0"/></radialGradient><radialGradient id="f292ida" cx="0" cy="0" r="1" gradientTransform="matrix(0 .375 -8.59375 0 21.656 9.594)" gradientUnits="userSpaceOnUse"><stop stop-color="#8db6dd"/><stop offset="1" stop-color="#9881ef" stop-opacity="0"/></radialGradient><radialGradient id="f292idb" cx="0" cy="0" r="1" gradientTransform="rotate(108.434 4.079 12.406)scale(4.1679 3.28572)" gradientUnits="userSpaceOnUse"><stop offset=".836" stop-color="#f09bb9" stop-opacity="0"/><stop offset=".975" stop-color="#f19bb8"/></radialGradient><radialGradient id="f292idc" cx="0" cy="0" r="1" gradientTransform="matrix(3.03123 -4.29689 7.02698 4.95717 14.61 16.235)" gradientUnits="userSpaceOnUse"><stop offset=".883" stop-color="#f09bb9" stop-opacity="0"/><stop offset=".975" stop-color="#db95ab"/></radialGradient><radialGradient id="f292idd" cx="0" cy="0" r="1" gradientTransform="rotate(137.663 7.733 8.241)scale(1.9024)" gradientUnits="userSpaceOnUse"><stop stop-color="#43a28a"/><stop offset=".871" stop-color="#44a38b" stop-opacity="0"/></radialGradient><radialGradient id="f292ide" cx="0" cy="0" r="1" gradientTransform="matrix(-.74997 3.40625 -5.16525 -1.13726 19.094 9.594)" gradientUnits="userSpaceOnUse"><stop stop-color="#6ab3a2"/><stop offset=".205" stop-color="#3c9992"/><stop offset=".515" stop-color="#398294"/><stop offset=".765" stop-color="#6b78c2"/></radialGradient><radialGradient id="f292idf" cx="0" cy="0" r="1" gradientTransform="matrix(0 .46094 -7.53286 0 18.945 9.578)" gradientUnits="userSpaceOnUse"><stop stop-color="#77beae"/><stop offset=".459" stop-color="#66b19f" stop-opacity="0"/></radialGradient><radialGradient id="f292idg" cx="0" cy="0" r="1" gradientTransform="rotate(111.176 5.929 10.581)scale(1.85964 1.71444)" gradientUnits="userSpaceOnUse"><stop offset=".08" stop-color="#f96a45"/><stop offset=".641" stop-color="#ff7951"/></radialGradient><radialGradient id="f292idh" cx="0" cy="0" r="1" gradientTransform="rotate(125.611 6.459 9.224)scale(1.55638 1.82542)" gradientUnits="userSpaceOnUse"><stop offset=".08" stop-color="#f6815d"/><stop offset=".641" stop-color="#ff9563"/></radialGradient><linearGradient id="f292idi" x1="9.625" x2="10.813" y1="14.438" y2="13.375" gradientUnits="userSpaceOnUse"><stop stop-color="#bbd9f3"/><stop offset=".66" stop-color="#b9daf5" stop-opacity="0"/></linearGradient><linearGradient id="f292idj" x1="22.188" x2="21.125" y1="14.313" y2="13.438" gradientUnits="userSpaceOnUse"><stop stop-color="#bbd9f3"/><stop offset=".66" stop-color="#b9daf5" stop-opacity="0"/></linearGradient><linearGradient id="f292idk" x1="10.021" x2="22.021" y1="29.5" y2="29.5" gradientUnits="userSpaceOnUse"><stop stop-color="#bad8f2"/><stop offset=".118" stop-color="#bde6ff"/><stop offset=".514" stop-color="#c0efff"/><stop offset=".769" stop-color="#cbf8ff"/><stop offset=".907" stop-color="#c9f6ff"/><stop offset=".988" stop-color="#c1e3fb"/></linearGradient><linearGradient id="f292idl" x1="15.063" x2="17.037" y1="22.938" y2="22.938" gradientUnits="userSpaceOnUse"><stop stop-color="#b8daf6"/><stop offset=".1" stop-color="#c3edff"/><stop offset=".34" stop-color="#c4efff"/><stop offset=".605" stop-color="#ccf7ff"/><stop offset=".863" stop-color="#cbf6ff"/><stop offset=".949" stop-color="#c3e5fd"/></linearGradient><linearGradient id="f292idm" x1="16.016" x2="16.016" y1="9.03" y2="10.188" gradientUnits="userSpaceOnUse"><stop stop-color="#a5e294"/><stop offset="1" stop-color="#ace3b0" stop-opacity="0"/></linearGradient><linearGradient id="f292idn" x1="18.844" x2="20.063" y1="5.188" y2="5.609" gradientUnits="userSpaceOnUse"><stop stop-color="#e4a671"/><stop offset=".334" stop-color="#fcb17b"/><stop offset=".659" stop-color="#ffc991"/><stop offset="1" stop-color="#fdc094"/></linearGradient><linearGradient id="f292ido" x1="19.281" x2="19.281" y1="5.313" y2="7.844" gradientUnits="userSpaceOnUse"><stop offset=".398" stop-color="#ffcd9f" stop-opacity="0"/><stop offset=".543" stop-color="#ffca9c"/><stop offset=".683" stop-color="#ffcb9c" stop-opacity="0"/></linearGradient><linearGradient id="f292idp" x1="16.021" x2="17.023" y1="14.109" y2="14.438" gradientUnits="userSpaceOnUse"><stop offset=".038" stop-color="#ecbfa3"/><stop offset=".329" stop-color="#fdc1a7"/><stop offset=".65" stop-color="#ffd4b9"/><stop offset=".968" stop-color="#ffd0b6"/></linearGradient><linearGradient id="f292idq" x1="17.951" x2="17.951" y1="9.06" y2="9.469" gradientUnits="userSpaceOnUse"><stop stop-color="#8ab4a0"/><stop offset=".464" stop-color="#66b19f" stop-opacity="0"/></linearGradient><linearGradient id="f292idr" x1="17.266" x2="17.266" y1="9.063" y2="9.297" gradientUnits="userSpaceOnUse"><stop stop-color="#e88873"/><stop offset="1" stop-color="#e68972" stop-opacity="0"/></linearGradient><linearGradient id="f292ids" x1="17.266" x2="17.266" y1="9.266" y2="10.609" gradientUnits="userSpaceOnUse"><stop offset=".07" stop-color="#ff9f71" stop-opacity="0"/><stop offset=".233" stop-color="#ff9f71"/><stop offset=".378" stop-color="#ff9f72" stop-opacity="0"/></linearGradient><linearGradient id="f292idt" x1="24.438" x2="17.781" y1="8.547" y2="16.703" gradientUnits="userSpaceOnUse"><stop stop-color="#fff"/><stop offset="1" stop-color="#fff" stop-opacity="0"/></linearGradient></defs></g></svg>